<?xml version="1.0" encoding="UTF-8"?>
<!-- Created with Inkscape (http://www.inkscape.org/) -->
<svg width="512" height="512" version="1.1" viewBox="0 0 135.47 135.47" xml:space="preserve" xmlns="http://www.w3.org/2000/svg"><path d="m67.601 33.412c-34.982-0.79373-48.586 24.072-50.709 43.622s4.2642 25.579 7.9618 33.578 6.7917 13.845 7.0735 18.025-5.626 1.5294-10.58 2.5988-1.6707 8.3581-1.6707 10.952 19.521-0.89707 21.904-1.1136 8.446-8.3223 8.91-10.581c0.46406-2.2584 1.6372-13.391 1.8562-15.592 0.21811-2.1922 5.0282 1.8413 15.255 1.4898 10.227 0.35146 15.037-3.682 15.255-1.4898 0.21905 2.2016 1.3922 13.334 1.8562 15.592 0.46406 2.2584 6.5279 10.364 8.91 10.581s21.904 3.7074 21.904 1.1136 3.2836-9.8824-1.6707-10.952c-4.9543-1.0694-10.862 1.5817-10.58-2.5988s3.3759-10.025 7.0735-18.025 10.085-14.028 7.9618-33.578-15.727-44.416-50.709-43.622z" fill="#cdceff" stroke="#000" stroke-linecap="round" stroke-width="3.175"/><path d="m73.136 70.723s-2.9385-3.3091-5.7544-3.3413c-2.8159-0.03214-8.508 1.8734-8.1675 8.5388s8.2112 4.6844 8.2603 5.3367c0.04906 0.65228-3.4954 0.45084-3.4341 7.1002 0.06136 6.6493 6.8032 2.9874 6.9609 2.1811" fill="none" stroke="#000" stroke-linecap="round" stroke-width="2.1167"/><g><circle cx="46.499" cy="67.733" r="9.2813" fill="#fff" stroke="#000" stroke-linecap="round" stroke-width="2.1167"/><circle cx="47.028" cy="67.733" r="4.7334"/></g><g transform="matrix(-1 0 0 1 135.47 0)"><circle cx="46.499" cy="67.733" r="9.2813" fill="#fff" stroke="#000" stroke-linecap="round" stroke-width="2.1167"/><circle cx="47.028" cy="67.733" r="4.7334"/></g><path d="m63.741 33.43c-1.5716-0.60283-4.0222-2.2224-4.6199-4.1943s0.41166-4.9151 1.7634-7.0538 2.9294-3.7285 6.716-4.6406 10.512 4.3054 13.981 3.0628 4.8262-6.1256 4.8262-6.1256 0.87886 6.0757-0.37125 7.9819-4.5178 2.1497-7.1466 2.1347c-2.6288-0.015-2.4125-4.1001-6.9609-4.1766s-8.201 2.2164-8.4459 5.1047 5.3088 5.8897 4.1173 7.889-2.288 0.6206-3.8596 0.01777z"/></svg>
